HIERARCHY
ROOT root
{
	OFFSET	0	13.1	24.9
	CHANNELS 6  Xposition Yposition Zposition Xrotation Yrotation Zrotation
	JOINT spine_1
	{
		OFFSET	0	9.99999	0
		CHANNELS 3  Xrotation Yrotation Zrotation
		JOINT spine_2
		{
			OFFSET	0	112	-10
			CHANNELS 3  Xrotation Yrotation Zrotation
			JOINT spine_3
			{
				OFFSET	0	206.5	19.3
				CHANNELS 3  Xrotation Yrotation Zrotation
				JOINT spine_4
				{
					OFFSET	0	110.4	14.6
					CHANNELS 3  Xrotation Yrotation Zrotation
					JOINT neck_1
					{
						OFFSET	0	71.8	-50.3
						CHANNELS 3  Xrotation Yrotation Zrotation
						JOINT neck_2
						{
							OFFSET	0	86.2	-25.8
							CHANNELS 3  Xrotation Yrotation Zrotation
							JOINT head_ee
							{
								OFFSET	0	179.8	-8.7
								CHANNELS 3  Xrotation Yrotation Zrotation
								End Site
								{
									OFFSET	1	0	0
								}
							}
						}
					}
					JOINT left_clavicle
					{
						OFFSET	-43.2	22.4	-70.8
						CHANNELS 3  Xrotation Yrotation Zrotation
						JOINT left_shoulder
						{
							OFFSET	-93.9	-5.79999	48.7
							CHANNELS 3  Xrotation Yrotation Zrotation
							JOINT left_elbow
							{
								OFFSET	-291.4	-30.8	15.2
								CHANNELS 3  Xrotation Yrotation Zrotation
								JOINT left_lowarm_twist
								{
									OFFSET	-110.7	-3.89999	13.6
									CHANNELS 3  Xrotation Yrotation Zrotation
									JOINT left_hand
									{
										OFFSET	-110.7	-3.89999	13.6
										CHANNELS 3  Xrotation Yrotation Zrotation
										JOINT left_ee
										{
											OFFSET	-80.8	-5.10001	12.1
											CHANNELS 3  Xrotation Yrotation Zrotation
											End Site
											{
												OFFSET	1	0	0
											}
										}
									}
								}
							}
						}
					}
					JOINT right_clavicle
					{
						OFFSET	43.2	22.4	-70.8
						CHANNELS 3  Xrotation Yrotation Zrotation
						JOINT right_shoulder
						{
							OFFSET	93.9	-5.79999	48.7
							CHANNELS 3  Xrotation Yrotation Zrotation
							JOINT right_elbow
							{
								OFFSET	291.4	-30.8	15.2
								CHANNELS 3  Xrotation Yrotation Zrotation
								JOINT right_lowarm_twist
								{
									OFFSET	110.7	-3.89999	13.6
									CHANNELS 3  Xrotation Yrotation Zrotation
									JOINT right_hand
									{
										OFFSET	110.7	-3.89999	13.6
										CHANNELS 3  Xrotation Yrotation Zrotation
										JOINT right_ee
										{
											OFFSET	80.8	-5.10001	12.1
											CHANNELS 3  Xrotation Yrotation Zrotation
											End Site
											{
												OFFSET	1	0	0
											}
										}
									}
								}
							}
						}
					}
				}
			}
		}
	}
	JOINT left_hip
	{
		OFFSET	-82.8	-127.5	0.300001
		CHANNELS 3  Xrotation Yrotation Zrotation
		JOINT left_knee
		{
			OFFSET	-28.2	-396.7	2.2
			CHANNELS 3  Xrotation Yrotation Zrotation
			JOINT left_ankle
			{
				OFFSET	-11.7	-411.3	35.4
				CHANNELS 3  Xrotation Yrotation Zrotation
				JOINT left_toes
				{
					OFFSET	0	-60	-88.6
					CHANNELS 3  Xrotation Yrotation Zrotation
					JOINT left_foot_ee
					{
						OFFSET	-22.5	-16.5	-42.2
						CHANNELS 3  Xrotation Yrotation Zrotation
						End Site
						{
							OFFSET	1	0	0
						}
					}
				}
			}
		}
	}
	JOINT right_hip
	{
		OFFSET	82.8	-127.5	0.300001
		CHANNELS 3  Xrotation Yrotation Zrotation
		JOINT right_knee
		{
			OFFSET	28.2	-396.7	2.2
			CHANNELS 3  Xrotation Yrotation Zrotation
			JOINT right_ankle
			{
				OFFSET	11.7	-411.3	35.4
				CHANNELS 3  Xrotation Yrotation Zrotation
				JOINT right_toes
				{
					OFFSET	0	-60	-88.6
					CHANNELS 3  Xrotation Yrotation Zrotation
					JOINT right_foot_ee
					{
						OFFSET	22.5	-16.5	-42.2
						CHANNELS 3  Xrotation Yrotation Zrotation
						End Site
						{
							OFFSET	1	0	0
						}
					}
				}
			}
		}
	}
}
MOTION
Frames: 8
Frame Time: 0.02
623.16 697.455 -628.744 26.0465 -84.5579 36.4381 -0.265528 -1.2046 -5.00863 -0.252011 -0.883867 -5.0749 -0.164431 0.216636 -5.14655 -0.200876 -0.597796 -5.11638 -11.0624 1.12982 6.23185 -10.9535 -1.97777 6.33101 -0.0 0.0 -0.0 8.92681 -28.9816 16.14 8.68466 -22.5639 60.6649 2.38143 -49.7053 1.10316 2.74994 0.0887408 -0.339995 0.169973 9.1437 4.89196 -0.0 0.0 -0.0 -4.76981 -19.8067 4.75693 -21.3258 12.4695 -68.7672 1.29601 32.6991 -0.38021 46.2262 0.712078 5.70418 -1.36838 -15.6292 2.05874 0.0 0.0 0.0 -15.6761 -13.8987 -8.06075 6.22062 -0.305669 -0.904879 42.2842 23.8989 -5.34513 38.3177 -0.0 -0.0 -0.0 0.0 -0.0 20.5918 -25.6187 -5.49445 -17.8789 -0.314855 -2.71449 18.4531 29.7651 3.17486 -15.2297 0.0 0.0 0.0 0.0 0.0 
631.777 693.635 -634.643 22.7133 -84.406 32.3086 -0.202739 -1.24357 -4.88526 -0.189948 -0.930583 -4.95426 -0.100727 0.139462 -5.03876 -0.135539 -0.657053 -4.99778 -11.4842 0.481672 6.02185 -11.3848 -3.021 5.94345 -0.0 0.0 -0.0 9.07503 -29.0658 16.4576 9.07041 -21.7598 59.8556 2.58862 -52.043 1.26392 2.01891 0.0667462 -0.24921 0.354611 8.85976 5.97369 -0.0 0.0 -0.0 -4.98683 -20.0245 5.02749 -21.9704 12.3775 -68.6075 1.30927 32.9648 -0.3874 47.046 0.765542 5.79447 -1.05241 -15.1914 0.304398 0.0 0.0 0.0 -15.5079 -13.0238 -6.91544 6.29238 -0.309767 -0.915116 42.2588 24.9579 -5.37806 38.1642 -0.0 -0.0 -0.0 0.0 -0.0 20.1281 -25.0415 -4.80828 -10.319 -0.285413 -1.55577 18.3956 30.4313 3.19406 -15.7731 0.0 0.0 0.0 0.0 0.0 
637.779 691.491 -638.065 23.8021 -84.738 32.9128 -0.101397 -1.10035 -4.90577 -0.0883571 -0.786347 -4.96564 -0.012088 0.275613 -5.01982 -0.0468584 -0.519619 -5.00051 -12.2531 0.694717 6.6476 -12.1323 -2.94053 6.58142 -0.0 0.0 -0.0 9.60809 -29.3094 17.6091 9.61976 -20.2512 59.226 2.74188 -53.6282 1.38607 1.02181 0.0348803 -0.12584 0.33011 8.74827 5.7705 -0.0 0.0 -0.0 -4.98312 -20.2975 4.95235 -22.7719 11.9373 -68.5245 1.30498 32.879 -0.385069 47.4342 0.79131 5.83696 -1.03261 -15.4676 0.0607576 0.0 0.0 0.0 -15.9329 -13.5632 -6.11627 6.34031 -0.31251 -0.921952 42.1916 24.9295 -5.37095 38.4855 -0.0 -0.0 -0.0 0.0 -0.0 20.5201 -24.9129 -4.58908 -5.35707 -0.183202 -0.801442 17.4737 30.353 3.04633 -16.436 0.0 0.0 0.0 0.0 0.0 
644.526 688.823 -640.306 22.1913 -84.4283 31.0314 0.0690963 -1.07916 -4.97284 0.0825265 -0.760954 -5.03122 0.15694 0.29934 -5.07951 0.121309 -0.505577 -5.06318 -12.137 0.603287 6.86619 -12.0086 -3.26788 6.76997 -0.0 0.0 -0.0 9.96478 -29.1095 18.4266 10.1678 -20.0278 59.0358 2.86407 -54.812 1.4852 0.799086 0.0274691 -0.098359 0.21838 8.29062 4.86254 -0.0 0.0 -0.0 -5.08745 -20.6352 5.02047 -23.0362 11.2564 -69.0799 1.29067 32.5918 -0.377334 47.0486 0.765711 5.79475 -1.11439 -15.0796 0.737023 0.0 0.0 0.0 -16.163 -14.593 -5.48202 5.85799 -0.285161 -0.853063 42.3724 24.794 -5.38279 38.4694 -0.0 -0.0 -0.0 0.0 -0.0 21.4127 -24.8882 -4.04568 -3.00403 -0.111977 -0.447371 17.7405 29.6164 3.05836 -16.7687 0.0 0.0 0.0 0.0 0.0 
651.772 686.614 -644.242 17.7896 -84.2118 26.121 0.115608 -1.07537 -5.03947 0.129416 -0.752941 -5.09748 0.203972 0.316758 -5.14292 0.167427 -0.498352 -5.12855 -12.6612 0.467763 7.02228 -12.5286 -3.56335 6.86378 -0.0 0.0 -0.0 10.3391 -29.0745 19.2654 10.8177 -20.5505 59.112 3.07177 -56.6762 1.6569 0.25881 0.00904704 -0.0318153 0.234633 7.87683 4.80161 -0.0 0.0 -0.0 -5.1984 -20.6782 5.1735 -23.5342 11.5828 -68.5341 1.28893 32.5566 -0.376393 47.7807 0.814549 5.87473 -0.797346 -14.6745 -1.05092 0.0 0.0 0.0 -16.1317 -14.321 -4.78967 5.90044 -0.287545 -0.859134 42.7694 25.0801 -5.42862 38.4363 -0.0 -0.0 -0.0 0.0 -0.0 22.0779 -24.8492 -3.02904 -1.00491 -0.0400715 -0.149008 17.685 29.9826 3.06443 -17.1581 0.0 0.0 0.0 0.0 0.0 
661.243 685.407 -644.208 15.1072 -84.3891 23.1475 0.175998 -0.983084 -5.05449 0.189963 -0.659893 -5.10661 0.255945 0.405392 -5.13302 0.21943 -0.409262 -5.13271 -11.6399 0.555713 7.63567 -11.4807 -3.91782 7.5184 -0.0 0.0 -0.0 10.4017 -29.0088 19.4135 10.844 -19.8644 58.5532 3.25848 -58.2078 1.81427 -0.426665 -0.0152286 0.0523608 0.216092 7.14061 4.38357 -0.0 0.0 -0.0 -5.24757 -20.9294 5.18005 -23.9765 11.1601 -68.399 1.27711 32.3177 -0.370054 47.8924 0.822096 5.88689 -0.681057 -13.9743 -1.4759 0.0 0.0 0.0 -16.6108 -15.2474 -4.8988 5.75267 -0.279266 -0.837991 42.769 25.2284 -5.43379 38.3953 -0.0 -0.0 -0.0 0.0 -0.0 22.6097 -25.198 -3.29583 2.05243 0.0899431 0.302081 18.4446 28.9108 3.13877 -17.8845 0.0 0.0 0.0 0.0 0.0 
672.648 684.608 -644.659 14.5246 -83.7051 22.2533 0.19344 -0.961692 -5.0326 0.207296 -0.639931 -5.08342 0.271074 0.418866 -5.10633 0.23492 -0.391758 -5.10847 -11.2549 0.657188 7.87235 -11.0844 -3.93125 7.79114 -0.0 0.0 -0.0 10.5161 -29.3032 19.632 11.3271 -20.1239 58.8089 3.46448 -59.7569 1.99084 -0.643163 -0.0231049 0.0788866 0.244253 6.81529 4.43574 -0.0 0.0 -0.0 -5.29861 -21.188 5.18656 -24.3916 10.6748 -68.5513 1.25898 31.9488 -0.360411 48.3374 0.852371 5.93514 -0.543127 -14.0911 -2.38578 0.0 0.0 0.0 -17.0598 -15.8288 -4.88557 5.74628 -0.278909 -0.837075 43.2418 24.9536 -5.46652 38.1292 -0.0 -0.0 -0.0 0.0 -0.0 23.1066 -25.2076 -3.11941 0.749896 0.031605 0.110735 17.2259 29.3009 2.96577 -18.3356 0.0 0.0 0.0 0.0 0.0 
682.769 684.012 -640.624 10.3235 -83.1749 18.4536 0.383807 -1.00633 -5.2187 0.3987 -0.672681 -5.27195 0.467325 0.407359 -5.29898 0.428425 -0.433423 -5.29692 -11.6137 0.251478 8.04243 -11.4394 -4.76271 7.83127 -0.0 0.0 -0.0 10.6343 -28.9042 19.9469 11.6362 -20.3011 58.5854 3.49635 -59.9844 2.0184 -1.21215 -0.0442834 0.148459 0.204057 6.48515 4.03903 -0.0 0.0 -0.0 -5.22322 -21.6574 4.95214 -24.5717 10.1054 -68.8855 1.23662 31.4898 -0.348658 48.9115 0.89199 5.99704 -0.283037 -12.9525 -3.54474 0.0 0.0 0.0 -17.7008 -16.4768 -5.59213 5.91532 -0.288381 -0.861263 42.78 25.6976 -5.4516 37.9503 -0.0 -0.0 -0.0 0.0 -0.0 23.664 -25.2614 -3.25813 0.237479 0.00985188 0.0351114 18.4569 29.1203 3.14903 -18.4 0.0 0.0 0.0 0.0 0.0 
